<?xml version="1.0" encoding="utf-8"?>
<svg xmlns="http://www.w3.org/2000/svg" xmlns:xlink="http://www.w3.org/1999/xlink" viewBox="0 0 512 512">
<style type="text/css">
  .st0{fill:#002240;}
  .st1{fill:#FFBD2E;}
  .st2{fill:#27C93F;}
  .st3{fill:#FF5F56;}
  .st4{fill:#FFFFFF;}
</style>
<path class="st0" d="M464,32H48C21.5,32,0,53.5,0,80v352c0,26.5,21.5,48,48,48h416c26.5,0,48-21.5,48-48V80 C512,53.5,490.5,32,464,32z"/>
<g>
	<circle class="st1" cx="192" cy="128" r="32"/>
	<circle class="st2" cx="288" cy="128" r="32"/>
	<circle class="st3" cx="96" cy="128" r="32"/>
</g>
<g>
  <path class="st4" d="M72.2,255.2h245.1c4.4,0,8.2-1.8,8.2-4V243c0-2.2-3.7-4-8.2-4H72.2c-4.4,0-8.2,1.8-8.2,4v8.1
    C64,253.3,67.7,255.2,72.2,255.2z"/>
  <path class="st4" d="M72.2,303.4h147c4.4,0,8.2-1.8,8.2-4v-8.1c0-2.2-3.7-4-8.2-4h-147c-4.4,0-8.2,1.8-8.2,4v8.1
    C64,301.6,67.7,303.4,72.2,303.4z"/>
  <path class="st4" d="M72.2,400h81.7c4.4,0,8.2-1.8,8.2-4v-8.1c0-2.2-3.7-4-8.2-4H72.2c-4.4,0-8.2,1.8-8.2,4v8.1
    C64,398.2,67.7,400,72.2,400z"/>
  <path class="st4" d="M72.2,351.7h212.4c4.4,0,8.2-1.8,8.2-4v-8.1c0-2.2-3.7-4-8.2-4H72.2c-4.4,0-8.2,1.8-8.2,4v8.1
    C64,349.9,67.7,351.7,72.2,351.7z"/>
</g>
</svg>
