<svg xmlns="http://www.w3.org/2000/svg" width="1052" height="1052" viewBox="0 0 1052 1052"><g fill="none" fill-rule="evenodd"><rect width="1052" height="1052" fill="#EFDA29"/><path fill="#2A2A28" d="M1052,58 L1052,274 L0,274 L0,58 L1052,58 Z M338.098438,105.507812 C319.283659,105.507812 304.530566,110.971436 293.83916,121.898682 C283.147754,132.825928 277.802051,147.69694 277.802051,166.511719 C277.802051,185.169271 283.147754,199.987874 293.83916,210.967529 C304.530566,221.947184 319.283659,227.437012 338.098438,227.437012 C356.965625,227.437012 371.744922,221.947184 382.436328,210.967529 C393.127734,199.987874 398.473438,185.169271 398.473438,166.511719 C398.473438,147.69694 393.10153,132.825928 382.357715,121.898682 C371.6139,110.971436 356.860807,105.507812 338.098438,105.507812 Z M226.921875,105.665039 C218.01237,105.665039 209.797282,107.080078 202.276611,109.910156 C194.755941,112.740234 188.453776,116.749512 183.370117,121.937988 C178.076823,127.3361 174.041341,133.808594 171.263672,141.355469 C168.486003,148.902344 167.097168,157.313965 167.097168,166.590332 C167.097168,176.548014 168.551514,185.326497 171.460205,192.925781 C174.368896,200.525065 178.469889,206.866536 183.763184,211.950195 C189.056478,217.033854 195.384847,220.859701 202.748291,223.427734 C210.111735,225.995768 218.143392,227.279785 226.843262,227.279785 C232.713053,227.279785 237.325033,226.991536 240.679199,226.415039 C244.033366,225.838542 247.623372,225 251.449219,223.899414 C254.384115,223.060872 257.187988,222.065104 259.86084,220.912109 C262.533691,219.759115 265.337565,218.527507 268.272461,217.217285 L268.272461,217.217285 L268.272461,189.230957 L265.12793,189.230957 C263.712891,190.48877 261.904785,191.982422 259.703613,193.711914 C257.502441,195.441406 255.117839,197.066081 252.549805,198.585938 C249.510091,200.472656 246.195231,201.966309 242.605225,203.066895 C239.015218,204.16748 235.385905,204.717773 231.717285,204.717773 C227.891439,204.717773 224.013184,204.101969 220.08252,202.870361 C216.151855,201.638753 212.588053,199.581706 209.391113,196.699219 C206.246582,193.869141 203.639242,189.990885 201.569092,185.064453 C199.498942,180.138021 198.463867,174.006185 198.463867,166.668945 C198.463867,159.646159 199.420329,153.671549 201.333252,148.745117 C203.246175,143.818685 205.748698,139.861816 208.84082,136.874512 C212.090169,133.782389 215.627767,131.568115 219.453613,130.231689 C223.27946,128.895264 227.314941,128.227051 231.560059,128.227051 C235.385905,128.227051 238.975911,128.803548 242.330078,129.956543 C245.684245,131.109538 248.802572,132.524577 251.685059,134.20166 C254.515137,135.878743 257.043864,137.582031 259.27124,139.311523 C261.498617,141.041016 263.346029,142.534668 264.813477,143.79248 L264.813477,143.79248 L268.272461,143.79248 L268.272461,115.413086 C266.123698,114.364909 263.621175,113.225016 260.764893,111.993408 C257.90861,110.7618 254.724772,109.648112 251.213379,108.652344 C247.859212,107.761393 244.203695,107.040771 240.246826,106.490479 C236.289958,105.940186 231.848307,105.665039 226.921875,105.665039 Z M450.768652,107.944824 L415.707129,107.944824 L415.707129,225 L444.165137,225 L444.165137,146.622559 L465.862402,197.485352 L486.694922,197.485352 L508.392188,146.622559 L508.392188,225 L538.422461,225 L538.422461,107.944824 L503.360938,107.944824 L477.104102,166.668945 L450.768652,107.944824 Z M612.179102,107.944824 L562.495508,107.944824 L562.495508,225 L592.683008,225 L592.683008,186.872559 L611.471582,186.872559 C620.014225,186.872559 627.154932,185.693359 632.893701,183.334961 C638.632471,180.976562 643.834049,177.491374 648.498437,172.879395 C651.905013,169.472819 654.525456,165.267008 656.359766,160.261963 C658.194076,155.256917 659.11123,150.133952 659.11123,144.893066 C659.11123,138.132324 657.86652,132.341146 655.3771,127.519531 C652.887679,122.697917 649.28457,118.741048 644.567773,115.648926 C640.637109,113.080892 636.116846,111.154867 631.006982,109.87085 C625.897119,108.586833 619.621159,107.944824 612.179102,107.944824 L612.179102,107.944824 Z M739.628613,107.944824 L704.881543,107.944824 L661.644238,225 L692.067578,225 L700.164746,201.337402 L743.559277,201.337402 L751.656445,225 L782.865918,225 L739.628613,107.944824 Z M885.473633,107.944824 L782.175781,107.944824 L782.175781,130.585449 L818.730957,130.585449 L818.730957,225 L848.918457,225 L848.918457,130.585449 L885.473633,130.585449 L885.473633,107.944824 Z M338.177051,127.598145 C341.950488,127.598145 345.579801,128.305664 349.06499,129.720703 C352.550179,131.135742 355.629199,133.415527 358.302051,136.560059 C360.922493,139.599772 363.045052,143.582845 364.669727,148.509277 C366.294401,153.43571 367.106738,159.410319 367.106738,166.433105 C367.106738,172.984212 366.399219,178.683675 364.98418,183.531494 C363.569141,188.379313 361.394173,192.585124 358.459277,196.148926 C355.838835,199.293457 352.772917,201.612549 349.261523,203.106201 C345.75013,204.599854 342.055306,205.34668 338.177051,205.34668 C334.298796,205.34668 330.603971,204.612956 327.092578,203.145508 C323.581185,201.67806 320.515267,199.398275 317.894824,196.306152 C315.274382,193.21403 313.164925,189.217855 311.566455,184.317627 C309.967985,179.417399 309.16875,173.482096 309.16875,166.511719 C309.16875,159.698568 309.994189,153.710856 311.645068,148.548584 C313.295947,143.386312 315.431608,139.337728 318.052051,136.402832 C320.882129,133.258301 323.987354,131.00472 327.367725,129.64209 C330.748096,128.27946 334.351204,127.598145 338.177051,127.598145 Z M721.862012,137.896484 L736.248242,179.875977 L707.475781,179.875977 L721.862012,137.896484 Z M598.515251,129.799688 C603.194797,129.805137 606.963281,129.870524 609.820703,129.99585 C612.808008,130.126872 615.873926,130.821289 619.018457,132.079102 C621.376855,133.022461 623.447005,134.686442 625.228906,137.071045 C627.010807,139.455648 627.901758,142.298828 627.901758,145.600586 C627.901758,148.954753 627.469385,151.797933 626.604639,154.130127 C625.739893,156.462321 624.337956,158.46696 622.398828,160.144043 C620.145247,162.030762 617.354476,163.288574 614.026514,163.91748 C610.698551,164.546387 606.466536,164.86084 601.330469,164.86084 L601.330469,164.86084 L592.683008,164.86084 L592.683008,129.799316 Z"/><g fill="#272726" fill-rule="nonzero" transform="translate(279 526)"><polygon points="303 456 0 456 0 8 303 8 303 94.651 107.471 94.651 107.471 171.976 288.933 171.976 288.933 258.627 107.471 258.627 107.471 369.349 303 369.349"/><path d="M729,315.147116 C729,359.251674 711.517151,395.086628 676.551453,422.651977 C641.585755,450.217326 594.105525,464 534.110762,464 C499.42629,464 469.194554,460.742277 443.415554,454.226831 C417.636554,447.711385 393.498036,439.44178 371,429.418017 L371,322.063513 L382.811469,322.063513 C405.122021,341.108663 430.104216,355.743357 457.758052,365.967596 C485.411888,376.191834 511.987693,381.303953 537.485467,381.303953 C544.047395,381.303953 552.671642,380.702528 563.358209,379.499676 C574.044776,378.296824 582.762765,376.292072 589.512176,373.485418 C597.761456,369.876863 604.557738,365.36617 609.901021,359.953338 C615.244305,354.540506 617.915947,346.521495 617.915947,335.896306 C617.915947,326.073018 614.025661,317.602938 606.24509,310.486066 C598.46452,303.369194 587.074889,297.906243 572.076198,294.097213 C556.327573,290.087708 539.6884,286.328797 522.15868,282.82048 C504.62896,279.312162 488.177272,274.851588 472.803614,269.438756 C437.55669,257.209765 412.199529,240.620436 396.732129,219.670771 C381.264729,198.721106 373.531029,172.70944 373.531029,141.635774 C373.531029,99.9369194 391.013878,65.9062432 425.979576,39.5437459 C460.945274,13.1812486 505.894475,0 560.82718,0 C588.387274,0 615.619272,2.85677252 642.523174,8.57031756 C669.427075,14.2838626 692.721917,21.4508533 712.407698,30.0712897 L712.407698,133.215813 L700.877455,133.215813 C684.003928,118.781594 663.333857,106.70296 638.867243,96.9799093 C614.400628,87.2568589 589.418434,82.3953338 563.92066,82.3953338 C554.921445,82.3953338 545.969102,83.0468784 537.063629,84.3499676 C528.158157,85.6530568 519.58078,88.1088788 511.3315,91.7174336 C504.019639,94.7245625 497.738937,99.2853748 492.489395,105.39987 C487.239853,111.514366 484.615082,118.480881 484.615082,126.299417 C484.615082,138.127457 488.833464,147.198963 497.270228,153.513934 C505.706991,159.828905 521.6431,165.592569 545.078555,170.804925 C560.452213,174.213005 575.216549,177.520847 589.371563,180.728451 C603.526578,183.936055 618.759623,188.346511 635.070699,193.959819 C667.130401,205.186433 690.800209,220.472672 706.080126,239.818535 C721.360042,259.164398 729,284.273925 729,315.147116 Z"/></g></g></svg>