<svg xmlns="http://www.w3.org/2000/svg" width="256" height="256" viewBox="0 0 256 256"><g fill="none" fill-rule="evenodd"><polygon fill="#FFF" fill-rule="nonzero" points="0 0 0 256 256 256 256 0"/><path fill="#050505" fill-rule="nonzero" d="M94,106 L96,106 C97.9392,100.006 94.7409,93.9607 93.4244,88 C90.7121,75.7201 84.555,56.4097 87.8426,44 C91.8657,28.8139 111.83,22.3369 121,11 L122,11 C127.985,19.4963 136.567,26.7335 144,33.9853 C146.452,36.377 152.236,39.7342 152.608,43.439 C153.07,48.034 147.751,55.0037 145.753,59 C138.977,72.5519 131.512,96.4849 118.985,105.486 C110.561,111.539 88.1295,101.908 87.4375,118 C87.325,120.617 88.5645,123.426 89,126 C100.584,126.28 99.2567,137.841 98.9846,147 C98.4277,165.744 80.6708,181.863 79,201 C87.8356,195.212 92.5679,176.359 97.2469,167 C112.093,137.304 126.455,107.171 140.309,77 C144.492,67.8899 149.578,59.1961 153.576,50 C155.226,46.2033 157.797,41.9966 155.381,38.0008 C150.26,29.5299 139.177,22.8099 132,16.0355 C129.332,13.5176 125.831,9.50769 122,8.92902 C117.919,8.31261 113.879,12.2725 111,14.615 C103.177,20.9801 88.0478,30.4802 84.1975,40 C82.1134,45.153 85.2018,53.6426 85.8449,59 C87.8271,75.5112 88.8947,90.0339 94,106 Z"/><path fill="#050505" fill-rule="nonzero" d="M117.318,34.0471 C111.873,37.3748 116.927,45.8769 122.848,42.5278 C128.534,39.3114 122.244,31.036 117.318,34.0471 Z"/><path fill="#FFF" fill-rule="nonzero" d="M121,41 L121,35 C117.528,36.9753 117.528,39.0247 121,41 Z"/><path fill="#050505" fill-rule="nonzero" d="M130,138 L127,136 C126.947,154.583 111.376,175.943 102.691,192 C99.5058,197.89 93.8757,205.109 93.4375,212 C92.8135,221.811 114.191,235.042 121,240.869 C123.513,243.02 127.338,247.33 131,246.964 C134.902,246.574 138.437,241.562 141,239 C148.677,231.326 160.089,222.863 164.973,213 C168.914,205.042 164.002,190.479 163.05,182 C160.118,155.883 155.527,129.214 154.623,103 C154.05,86.3739 170.491,68.6524 175,53 C167.609,56.6355 164.099,68.7343 160.861,76 C151.737,96.4738 136.294,116.602 130,138 Z"/><path fill="#FFF" fill-rule="nonzero" d="M149 110 132.637 144 132 169 131 210 128 210 128 156C123.097 158.78 120.75 165.106 118.245 170 113.416 179.433 108.234 188.785 103 198 100.953 201.604 96.0376 207.645 96.9668 212 98.3995 218.715 108.375 224.442 113 229.004 116.833 232.785 124.285 242.501 130 242.883 137.929 243.413 149.247 226.262 154.086 221 157.113 217.708 161.016 214.391 162.436 210 164.428 203.839 161.656 195.291 160.95 189 159.001 171.649 156.537 154.315 154.282 137 153.258 129.145 153.902 116.372 149 110ZM92 123C103.031 123 115.489 124.862 118 111 107.451 111.218 89.402 108.298 92 123Z"/><polygon fill="#FFF" fill-rule="nonzero" points="102 127 102 141 111 126"/></g></svg>