<svg xmlns="http://www.w3.org/2000/svg" viewBox="0 0 448 448"><path d="M400,0 C426.5,0 448,21.5 448,48 L448,48 L448,400 C448,426.5 426.5,448 400,448 L400,448 L48,448 C21.5,448 0,426.5 0,400 L0,400 L0,48 C0,21.5 21.5,0 48,0 L48,0 Z M345.303727,101.7 L175.503727,101.7 L175.503727,132 L197.103727,132 C202.503727,183 219.903727,229.5 249.303727,270.9 C226.503727,297.3 198.303727,319.2 164.403727,336.3 L185.103727,361.5 C217.503727,344.1 245.403727,322.2 268.803727,295.8 C288.603727,318.9 312.603727,340.5 341.103727,360.3 L363.303727,335.1 C333.303727,315.9 308.403727,294.9 288.003727,271.8 C315.903727,232.5 335.103727,185.1 345.303727,129.3 L345.303727,101.7 Z M141.303727,241.2 C126.903727,276.6 109.803727,311.4 90.3037267,345 L121.803727,358.8 C139.503727,325.8 155.403727,290.4 169.803727,252.9 L141.303727,241.2 Z M313.203727,132 C304.803727,175.5 289.803727,213.6 268.203727,246 C244.803727,212.1 231.303727,174 227.103727,132 L313.203727,132 Z M107.703727,156.3 L85.5037267,177.9 C108.303727,194.4 126.003727,209.7 138.603727,223.5 L160.803727,201.3 C146.403727,186.3 128.703727,171.3 107.703727,156.3 Z M114.903727,86.1 L92.7037267,107.7 C115.803727,124.8 133.503727,140.7 146.103727,155.7 L168.303727,133.5 C153.903727,117.9 135.903727,102 114.903727,86.1 Z"/></svg>