<svg xmlns="http://www.w3.org/2000/svg" width="1052" height="1052" viewBox="0 0 1052 1052"><path fill="#FF0200" d="M600.183403,360.615178 C600.183403,339.278263 596.435611,320.989478 588.940028,305.748825 C581.444444,290.508171 568.571595,278.506156 550.321478,269.74278 C537.611576,263.646519 522.783357,259.93161 505.83682,258.598052 C488.890284,257.264495 469.17364,256.597717 446.68689,256.597717 L378.737796,256.597717 L378.737796,485.779046 L436.421199,485.779046 C466.403533,485.779046 491.497443,484.064473 511.702929,480.635326 C531.908415,477.206179 548.854951,469.395344 562.542538,457.202821 C575.578336,445.391314 585.110762,432.341504 591.139819,418.053392 C597.168875,403.765279 600.183403,384.619208 600.183403,360.615178 Z M893,951 L663.732915,951 L465.262901,638.947616 L378.737796,638.947616 L378.737796,951 L192,951 L192,100 L506.814505,100 C549.832636,100 586.821711,102.857623 617.781729,108.572868 C648.741748,114.288113 677.746397,126.671144 704.795676,145.721961 C732.170851,164.772778 753.924338,189.443586 770.056137,219.734385 C786.187936,250.025185 794.253835,288.031565 794.253835,333.753526 C794.253835,396.621222 781.788354,447.86792 756.857392,487.49362 C731.92643,527.119319 696.322408,560.077233 650.045328,586.367361 L893,951 Z"/></svg>