<svg xmlns="http://www.w3.org/2000/svg" viewBox="0 0 513 513"><path d="M448.1091,33 L64.1091,33 C29.6491,33 1,61.65 1,97 L1,417 C1,452.35 29.65,481 64.1,481 L448.1,481 C483.45,481 512.100002,452.35 512.100002,417 L512.100002,97 C512.1091,61.65 484.3091,33 448.1091,33 Z M112.1091,97 C138.6191,97 160.1091,118.49 160.1091,145 C160.1091,171.51 139.5091,193 112.1091,193 C84.7091,193 64.1091,171.51 64.1091,145 C64.1091,118.49 86.4891,97 112.1091,97 Z M447.1091,408.6 C444.3091,413.8 438.9091,417 433.0091,417 L83.0191,417 C76.9981,417 71.4891,413.621 68.7591,408.25 C66.0291,402.883 66.5441,396.44 70.0931,391.57 L140.0931,295.57 C143.1091,291.4 147.9091,289 153.0091,289 C158.1091,289 162.9251,291.441 165.9391,295.574 L198.3991,340.084 L291.6991,200.984 C294.7091,195.7 299.7091,193 305.0091,193 C310.3091,193 315.3591,195.672 318.3191,200.125 L446.3191,392.125 C449.6091,397 449.9091,403.3 447.1091,408.6 Z"/></svg>