<svg viewBox="0 0 1024 1024" version="1.1" xmlns="http://www.w3.org/2000/svg" xmlns:xlink="http://www.w3.org/1999/xlink">
<path d="M0 0h1024v1024H0V0z" fill="#202425" opacity=".01"></path>
<path d="M955.733333 238.933333a170.666667 170.666667 0 1 0-341.333333 0 170.666667 170.666667 0 0 0 341.333333 0zM448.7168 290.816a34.133333 34.133333 0 0 0-59.255467 0L38.673067 904.635733A34.133333 34.133333 0 0 0 68.3008 955.733333h701.576533a34.133333 34.133333 0 0 0 29.627734-51.063466L448.750933 290.781867z" fill="#11AA66"></path>
<path d="M721.3056 529.749333a34.133333 34.133333 0 0 1 59.255467 0l214.254933 374.920534A34.133333 34.133333 0 0 1 965.188267 955.733333H536.6784a34.133333 34.133333 0 0 1-29.627733-51.063466l214.254933-374.954667z" fill="#FFAA44"></path></svg>