<svg viewBox="0 0 1024 1024" xmlns="http://www.w3.org/2000/svg" xmlns:xlink="http://www.w3.org/1999/xlink">
<path d="M813.431725 388.476709l0-95.606475c0-153.48058-131.225717-277.965779-293.173133-277.965779-161.944346 0-293.170063 124.484176-293.170063 277.965779l0 94.015234c-71.494311 4.897543-127.878482 61.447491-127.878482 130.494053l0 359.726921c0 72.216765 61.756529 130.796952 137.960095 130.796952l552.494273 0c76.203566 0 137.960095-58.580187 137.960095-130.796952L927.624511 517.379521C927.624511 452.80276 878.305245 399.159002 813.431725 388.476709zM581.427744 723.688283l0 121.141034L477.951021 844.829318l0-119.194706c-34.651194-17.092283-58.304917-51.442626-58.304917-91.036389 0-56.644091 48.39522-102.558817 108.159372-102.558817 59.765175 0 108.162442 45.913703 108.162442 102.558817C635.967918 672.739914 614.016976 706.019879 581.427744 723.688283zM720.466404 386.535497 319.028499 386.535497l0-76.632331c0-105.090477 89.839121-190.349279 200.74607-190.349279 110.797455 0 200.690812 85.258803 200.690812 190.349279L720.46538 386.535497z"></path>
</svg>