<svg viewBox="0 0 1024 1024" version="1.1" xmlns="http://www.w3.org/2000/svg" xmlns:xlink="http://www.w3.org/1999/xlink">
<path d="M821.457602 118.382249H205.725895c-48.378584 0-87.959995 39.583368-87.959996 87.963909v615.731707c0 48.378584 39.581411 87.959995 87.959996 87.959996h615.733664c48.380541 0 87.961952-39.581411 87.961952-87.959996V206.346158c-0.001957-48.378584-39.583368-87.963909-87.963909-87.963909zM493.962468 457.544987c-10.112054 32.545237-21.72487 82.872662-38.806571 124.248336-8.806957 22.378397-8.380404 18.480717-15.001764 32.609808l5.71738-1.851007c58.760658-16.443827 99.901532-20.519564 138.162194-27.561607-7.67796-6.06371-14.350194-10.751884-19.631237-15.586807-26.287817-29.101504-35.464584-34.570387-70.440002-111.862636v0.003913z m288.36767 186.413594c-7.476424 8.356924-20.670227 13.191847-40.019704 13.191847-33.427694 0-63.808858-9.229597-107.79277-31.660824-75.648648 8.356924-156.097 17.214754-201.399704 31.729308-2.199293 0.876587-4.832967 1.759043-7.916674 3.077836-54.536215 93.237125-95.031389 132.767663-130.621199 131.19646-11.286054-0.49895-27.694661-7.044-32.973748-10.11988l-6.52157-6.196764-2.29517-4.353583c-3.07588-7.91863-3.954423-15.395054-2.197337-23.751977 4.838837-23.309771 29.907651-60.251638 82.686779-93.237126 8.356924-6.159587 27.430511-15.897917 45.020944-24.25484 13.311204-21.177004 19.45905-34.744531 36.341171-72.259702 19.102937-45.324228 36.505531-99.492589 47.500041-138.191543v-0.44025c-16.267727-53.219378-25.945401-89.310095-9.67376-147.80856 3.958337-16.71189 18.46702-33.864031 34.748444-33.864031h10.552304c10.115967 0 19.791684 3.520043 26.829814 10.552304 29.029107 29.031064 15.39114 103.824649 0.8805 162.323113-0.8805 2.63563-1.322707 4.832967-1.761 6.153717 17.59239 49.697378 45.400538 98.774492 73.108895 121.647926 11.436717 8.791304 22.638634 18.899444 36.71098 26.814161 19.791684-2.20125 37.517128-4.11487 55.547812-4.11487 54.540128 0 87.525615 9.67963 100.279169 30.351814 4.400543 7.034217 6.595923 15.389184 5.281043 24.1844-0.44025 10.996467-4.39663 21.112434-12.31526 29.031064z m-27.796407-36.748157c-4.394673-4.398587-17.024957-16.936907-78.601259-16.936907-3.073923 0-10.622744-0.784623-14.57521 3.612007 32.104987 14.072347 62.830525 24.757704 83.058545 24.757703 3.083707 0 5.72325-0.442207 8.356923-0.876586h1.759044c2.20125-0.8805 3.520043-1.324663 3.960293-5.71738-0.87463-1.324663-1.757087-3.083707-3.958336-4.838837z m-387.124553 63.041845c-9.237424 5.27713-16.71189 10.112054-21.112433 13.634053-31.226444 28.586901-51.018128 57.616008-53.217422 74.331812 19.789727-6.59788 45.737084-35.626987 74.329855-87.961952v-0.003913z m125.574957-297.822284l2.197336-1.761c3.079793-14.072347 5.232127-29.189554 7.87167-38.869184l1.318794-7.036174c4.39663-25.070771 2.71781-39.720334-4.76057-50.272637l-6.59788-2.20125a57.381208 57.381208 0 0 0-3.079794 5.27713c-7.474467 18.47289-7.063567 55.283661 3.0524 94.865072l-0.001956-0.001957z"></path>
</svg>