<svg xmlns="http://www.w3.org/2000/svg" width="226" height="194" viewBox="0 0 226 194"><path fill="#59A51B" d="M109.365186.842235087C119.563942-2.11585606 127.292607 3.20612743 134.574926 9.21968044L135.189316 9.72934466C135.291553 9.81450654 135.393712 9.8997632 135.495799 9.98509345L136.107511 10.4977883 136.107511 10.4977883 136.717775 11.0112314C136.920986 11.1823907 137.124001 11.3535051 137.326865 11.524405L137.935051 12.0362916C138.745484 12.7174965 139.55423 13.3925552 140.364186 14.0506121 160.785186 30.6420121 180.689186 47.9355121 201.364186 64.2041121 209.903186 70.9235121 222.713186 78.4721121 224.179186 90.2041121 225.827469 103.398658 218.76906 111.074597 209.98656 118.58594L209.340962 119.135334C209.124805 119.318419 208.907724 119.501484 208.689819 119.684607L208.033737 120.234225C207.704564 120.509197 207.373766 120.784474 207.041686 121.060317L206.375919 121.612836C206.264707 121.705074 206.153377 121.797394 206.041943 121.889807L205.372188 122.445464C205.036786 122.723923 204.700671 123.003385 204.364186 123.284112L204.364186 123.284112 146.364186 171.451112C138.427186 178.065112 128.783186 189.544112 118.364186 191.814112 106.340186 194.433112 94.115586 186.740112 92.549386 174.204112 90.769986 159.962112 92.364186 144.559112 92.364186 130.204112L92.364186 130.204112 92.3635823 41.7368404C92.3572666 39.2373054 92.3034043 36.620726 92.2973134 33.9670813L92.2974548 32.9703833C92.3346201 19.4957225 93.901476 5.32734036 109.365186.842235087ZM128.473186 45.3792121C122.737186 46.1109121 123.678186 58.4664121 125.106186 62.2041121 128.467186 70.9989121 141.435186 78.8402121 148.364186 84.9194121 150.931186 87.1713121 157.292186 91.0340121 156.157186 95.1647121 155.279186 98.3599121 150.762186 100.959112 148.364186 102.957112 141.426186 108.740112 131.124186 114.733112 126.106186 122.294112 123.686186 125.940112 121.927186 142.141112 128.473186 142.658112 133.867186 143.083112 140.540186 135.165112 144.325186 132.011112 153.933186 124.005112 163.750186 116.279112 173.364186 108.285112 173.537287 108.14117 173.710373 107.997737 173.883243 107.854692L174.40101 107.426598C174.487131 107.355403 174.573148 107.284273 174.659036 107.213196L175.172627 106.787225C180.459688 102.389393 185.061635 98.072415 183.046186 90.2188121 180.561186 80.5357121 160.926186 69.7026121 153.364186 63.4541121 148.329186 59.2941121 135.298186 44.5087121 128.473186 45.3792121ZM28.364186 95.2041121C35.098186 89.0023121 42.331386 83.3116121 49.364186 77.4510121 58.406286 69.9159121 64.428086 66.4604121 64.363386 54.2041121 64.343586 50.4479121 64.458286 44.8061121 59.359586 44.5768121 54.440986 44.3556121 48.180186 51.2563121 44.443686 54.0760121 34.316886 61.7180121 24.226286 69.4881121 14.284686 77.3677121 10.173046 80.6266121 3.75896602 83.8617121 1.30245802 88.6439121-2.28408398 95.6260121 2.12764602 101.833112 7.36495602 105.993112 19.232886 115.422112 31.407986 124.464112 43.364186 133.780112 47.382086 136.910112 55.396986 145.876112 61.135786 143.581112 66.044486 141.618112 65.358286 127.599112 63.800186 123.505112 62.305586 119.578112 57.443486 116.917112 54.275486 114.458112 46.514786 108.434112 37.896386 97.8897121 28.364186 95.2041121Z" transform="translate(.636 .796)"/></svg>