<svg viewBox="0 0 1024 1024" version="1.1" xmlns="http://www.w3.org/2000/svg" xmlns:xlink="http://www.w3.org/1999/xlink">
<path d="M1.022977 480.799201h480.799201v-480.799201H1.022977v480.799201z m120.1998-360.599401h240.399601v240.399601h-240.399601v-240.399601zM542.177822 0v480.799201h480.799201v-480.799201h-480.799201z m360.599401 360.599401h-240.399601v-240.399601h240.399601v240.399601z m-721.198801-60.355645H301.778222V180.043956H181.578422v120.1998zM1.022977 1021.954046h480.799201v-480.799201H1.022977v480.799201z m120.1998-360.599401h240.399601v240.399601h-240.399601v-240.399601zM842.933067 180.043956h-120.1998v120.1998h120.1998V180.043956zM542.177822 1021.954046h120.1998v-120.1998H542.177822v120.1998z m120.1998-360.599401v240.399601H782.577423v-240.399601h-120.199801z m240.399601 240.399601H782.577423v120.1998h240.3996v-240.3996h-120.1998v120.1998z m0-240.399601H1022.977023v-120.1998h-120.1998v120.1998zM542.177822 540.643357V660.843157h120.1998v-120.1998H542.177822z m-360.5994 300.755244H301.778222v-120.1998H181.578422v120.1998z"></path>
</svg>