<svg xmlns="http://www.w3.org/2000/svg" viewBox="0 0 300 300">
<path d="M94,170.39c1.26-.78,2.25-1,2.39-1.54,6.21-21.22,23.14-32.62,39.93-44.44C158,109.17,179.2,93.3,201.73,78.29c-27.95,26.83-12,60.7-17.88,92.44,5.76-2.13,6.17-5.69,7.38-8.43,13.24-30.06,26.53-60.11,39.43-90.33,2.49-5.85,5.6-8.4,12.12-8a265.26,265.26,0,0,0,28.48,0c7.75-.38,9.6,1.3,5.91,8.91-11.65,24-24.27,47.64-33.58,72.52-12.27,32.82-32.15,57.87-62.34,75.63-13.75,8.09-26,18.72-39.78,27.81,4.41-5.6,4.47-11.87,4.43-18.31-.14-25.89-.06-51.78-.06-78.36-4.83,1.44-5.2,5.52-6.63,8.41-13.27,26.83-26.61,53.64-39.29,80.75-3.16,6.75-6.94,9.15-14.18,8.7a277.77,277.77,0,0,0-29.57,0c-6.6.29-9.18-1.81-8.83-8.66.81-15.67,1-31.38,1.54-47.07.09-2.91.18-5.7,3-7.75,13.23-9.59,26.35-19.32,39.63-29.08C94.81,161.92,91.78,166.25,94,170.39Z"/><path d="M21.41,196.16c.8-1.13,1.38-2.52,2.42-3.36C47,174.1,53,149.22,51.2,120.77c-1-15.6.64-31.35.52-47C51.66,66.13,54.44,63.51,62,64c9.82.58,19.7.38,29.55.07,5.65-.18,7.76,1.63,7.35,7.52-1.59,22.56-2.9,45.14-4.07,67.73-.21,4.11-1.87,6.66-5,9q-33.56,24.5-67,49.19Z"/><path d="M117.59,125.08c8.73-18.48,17.42-37,26.24-55.41,1-2.17,1.61-5.28,4.86-5.32,11.32-.13,22.65-.14,34-.1,2.66,0,3.67,1.73,3.86,4.27.38,5-.26,9.12-4.91,12.4-12.83,9.06-25.36,18.54-38,27.83q-12.28,9-24.63,18Z"/><path d="M161.34,247.43l60-44c-10.2,13.1-19.06,26.56-25,41.87-1.15,3-3.17,4.63-6.59,4.59-9.32-.1-18.63,0-27.95,0C161.65,249,161.49,248.24,161.34,247.43Z"/>
</svg>