<svg xmlns="http://www.w3.org/2000/svg" width="448" height="448" viewBox="0 0 448 448"><path d="M400,0 C426.5,0 448,21.5 448,48 L448,48 L448,400 C448,426.5 426.5,448 400,448 L400,448 L48,448 C21.5,448 0,426.5 0,400 L0,400 L0,48 C0,21.5 21.5,0 48,0 L48,0 Z M317.720446,54 C311.492738,54.7778694 305.913176,56.8548806 300.983185,60.2272323 C296.051769,63.6019596 292.029371,67.4941579 288.914567,71.906203 L288.914567,71.906203 L223.908061,180.900584 L164.738664,72.6840725 C161.625761,68.273453 157.603839,64.186431 152.671947,60.4220562 C147.741956,56.659582 142.161919,54.5198471 135.932786,54 C125.293034,55.2972415 118.026108,58.2172215 114.13391,62.7589907 C110.241712,67.2993344 107.646754,73.2039192 106.349038,80.4708449 C106.089115,86.1787055 107.126908,91.435145 109.463842,96.235412 C111.798876,101.037105 114.263634,104.994402 116.858591,108.107306 L116.858591,108.107306 L169.020986,199.974779 L112.966393,199.974779 C105.959391,200.494625 100.574653,202.829659 96.8121784,206.981781 C93.0497042,211.133903 90.7778694,216.454016 90,222.941172 C90.7778694,229.688726 93.0497042,235.268763 96.8121784,239.680808 C100.574653,244.092853 105.959391,246.557611 112.966393,247.077458 L112.966393,247.077458 L188.09518,247.465205 L188.09518,271.990663 L112.966393,271.990663 C105.959391,272.508609 100.574653,274.843643 96.8121784,278.995765 C93.0497042,283.147886 90.7778694,288.468 90,294.957056 C90.7778694,301.444212 93.0497042,307.348322 96.8121784,312.668435 C100.574653,317.988549 105.959391,320.908054 112.966393,321.426 L112.966393,321.426 L188.09518,321.426 L188.095181,361.911801 C188.614553,373.0714 192.052479,381.373742 198.411336,386.82358 C204.768767,392.275319 213.657957,395 225.075579,395 C248.172171,395 260.238889,383.9706 261.278582,361.911801 L261.278582,361.911801 L261.278582,320.649082 L336.017247,321.03873 C342.764326,320.518883 348.084439,317.989025 351.976638,313.446781 C355.869311,308.906437 358.076047,303.261776 358.593993,296.514697 C358.076047,290.025165 355.868836,284.445603 351.976638,279.775536 C348.084439,275.103567 342.764326,272.50861 336.017247,271.990664 L336.017247,271.990664 L261.278582,271.990664 L261.278582,248.2445 L335.627599,247.854853 C342.374678,247.336907 347.759416,244.740049 351.781814,240.069981 C355.806112,235.398013 358.076046,229.688726 358.593993,222.941172 C358.076046,216.454017 355.868836,211.133903 351.976637,206.981781 C348.084439,202.82966 342.764325,200.494626 336.017246,199.974779 L336.017246,199.974779 L278.795137,199.974779 L339.1311,101.880073 C344.321014,95.132519 346.915972,87.9957929 346.915972,80.4708445 C346.138578,75.0210066 344.905961,70.6089615 343.218597,67.2342342 C341.531709,63.8618829 339.454697,61.2669257 336.989464,59.4498379 C334.524231,57.632275 331.669351,56.3350339 328.426723,55.5571645 C325.182195,54.7778694 321.614545,54.2599234 317.720446,54 Z"/></svg>