<svg xmlns="http://www.w3.org/2000/svg" viewBox="0 0 448 448"><path d="M400,0 C426.5,0 448,21.5 448,48 L448,48 L448,400 C448,426.5 426.5,448 400,448 L400,448 L48,448 C21.5,448 0,426.5 0,400 L0,400 L0,48 C0,21.5 21.5,0 48,0 L48,0 Z M232.600915,82.4348434 C220.172596,86.6036778 213.6359,99.9267712 217.807341,112.347325 L227.784403,141.572163 L171.362401,160.482352 L162.073413,132.288979 C157.901972,119.868425 144.570549,113.335815 132.14223,117.504649 C119.670909,121.673483 112.833179,134.996577 117.00462,147.41713 L126.293608,175.266682 L97.0504972,185.237509 C84.622178,189.406343 78.0854828,203.073258 82.2569237,215.493812 C86.4283647,227.914365 99.7597881,234.446976 112.188107,230.278142 L141.431218,220.651136 L160.35323,276.694061 L132.14223,285.977245 C119.713911,290.146079 113.177215,303.469173 117.348656,315.889726 C121.520097,328.353266 134.851521,335.186712 147.27984,331.017878 L175.146804,321.734694 L185.123865,350.959532 C189.295306,363.380085 202.970766,369.912696 215.399085,365.743862 C227.827404,361.575027 234.3641,348.251934 230.192659,335.83138 L220.559634,306.606542 L276.637599,287.696353 L285.926587,315.889726 C290.098028,328.31028 303.429451,334.84289 315.85777,330.674056 C328.329102,326.505222 335.166821,313.182128 330.99538,300.761575 L321.706392,272.912023 L350.949503,262.941196 C363.377822,258.772362 369.914517,245.105447 365.743076,232.684893 C361.571635,220.26434 348.240212,213.731729 335.811893,217.900563 L306.568782,227.527569 L287.64677,171.484644 L315.85777,162.20146 C328.286089,158.032626 334.822785,144.709532 330.651344,132.288979 C326.479903,119.868425 313.148479,112.991993 300.72016,117.160827 L272.853196,126.444011 L262.876135,97.2191732 C259.736804,87.8930144 251.479926,81.7901751 242.233939,81.0595569 C239.13761,80.8016961 235.697244,81.4033785 232.600915,82.4348434 Z M242.077982,187 L261,243.077982 L204.922018,262 L186,205.922018 L242.077982,187 Z"/></svg>