<svg xmlns="http://www.w3.org/2000/svg" width="511" height="511" viewBox="0 0 511 511"><path d="M447.021617,0 L63.0967518,0 C28.6434944,0 0,32.6789062 0,73 L0,438 C0,478.321094 28.6443942,511 63.0876536,511 L447.012518,511 C482.355602,511 511,478.321094 511,438 L511,73 C511.009094,32.6789062 483.214533,0 447.021617,0 Z M145.6091,66 C190.620871,66 227.1091,102.488229 227.1091,147.5 C227.1091,192.511771 192.132017,229 145.6091,229 C99.0861833,229 64.1091,192.511771 64.1091,147.5 C64.1091,102.488229 102.108475,66 145.6091,66 Z M445.088586,418.6 C442.288586,423.8 436.888586,427 430.988586,427 L80.9985863,427 C74.9775863,427 69.4685863,423.621 66.7385863,418.25 C64.0085863,412.883 64.5235863,406.44 68.0725863,401.57 L138.072586,305.57 C141.088586,301.4 145.888586,299 150.988586,299 C156.088586,299 160.904586,301.441 163.918586,305.574 L196.378586,350.084 L289.678586,210.984 C292.688586,205.7 297.688586,203 302.988586,203 C308.288586,203 313.338586,205.672 316.298586,210.125 L444.298586,402.125 C447.588586,407 447.888586,413.3 445.088586,418.6 Z"/></svg>