<svg xmlns="http://www.w3.org/2000/svg" viewBox="0 0 448 448"><path d="M400,0 L48,0 C21.5,0 0,21.5 0,48 L0,400 C0,426.5 21.5,448 48,448 L400,448 C426.5,448 448,426.5 448,400 L448,48 C448,21.5 426.5,0 400,0 Z M243.8,349.4 C243.8,393 218.2,412.9 180.9,412.9 C147.2,412.9 127.7,395.5 117.7,374.4 L152,353.7 C158.6,365.4 164.6,375.3 179.1,375.3 C192.9,375.3 201.7,369.9 201.7,348.8 L201.7,205.7 L243.8,205.7 L243.8,349.4 L243.8,349.4 Z M343.4,412.9 C304.3,412.9 279,394.3 266.7,369.9 L301,350.1 C310,364.8 321.8,375.7 342.5,375.7 C359.9,375.7 371.1,367 371.1,354.9 C371.1,340.5 359.7,335.4 340.4,326.9 L329.9,322.4 C299.5,309.5 279.4,293.2 279.4,258.9 C279.4,227.3 303.5,203.3 341,203.3 C367.8,203.3 387,212.6 400.8,237 L368,258 C360.8,245.1 353,240 340.9,240 C328.6,240 320.8,247.8 320.8,258 C320.8,270.6 328.6,275.7 346.7,283.6 L357.2,288.1 C393,303.4 413.1,319.1 413.1,354.3 C413.1,392.1 383.3,412.9 343.4,412.9 L343.4,412.9 Z"/></svg>