<svg xmlns="http://www.w3.org/2000/svg" viewBox="0 0 40 38"><g fill="none" transform="translate(.97)"><polygon fill="#546E7A" points="16.936 26.772 19.537 24.048 22.137 26.772 22.137 38 16.936 38"/><polygon fill="#F50057" points="12.767 24.058 16.472 23.383 16.975 27.115 10.375 36.199 6.168 33.141"/><polygon fill="#D500F9" points="10.992 19.409 14.385 21.041 12.599 24.356 1.92 27.825 .313 22.879"/><polygon fill="#29B6F6" points="12.286 14.607 14.072 17.922 10.679 19.554 0 16.084 1.607 11.137"/><polygon fill="#00E5FF" points="16.156 11.482 15.653 15.214 11.948 14.539 5.348 5.455 9.556 2.398"/><polygon fill="#546E7A" points="21.124 11.228 18.523 13.952 15.923 11.228 15.923 0 21.124 0"/><polygon fill="#F50057" points="25.292 13.943 21.588 14.618 21.085 10.886 27.684 1.802 31.892 4.859"/><polygon fill="#D500F9" points="27.069 18.59 23.675 16.958 25.461 13.643 36.14 10.174 37.747 15.12"/><polygon fill="#29B6F6" points="25.774 23.393 23.988 20.078 27.381 18.447 38.06 21.916 36.453 26.863"/><polygon fill="#00E5FF" points="21.904 26.518 22.408 22.786 26.112 23.461 32.712 32.545 28.504 35.602"/></g></svg>