<svg xmlns="http://www.w3.org/2000/svg" viewBox="0 0 793 793"><path d="M704.457602,0.382249 L88.725895,0.382249 C40.347311,0.382249 0.765899,39.965617 0.765899,88.346158 L0.765899,704.077865 C0.765899,752.456449 40.34731,792.037861 88.725895,792.037861 L704.459559,792.037861 C752.8401,792.037861 792.421511,752.45645 792.421511,704.077865 L792.421511,88.346158 C792.421511,39.967574 752.838143,0.382249 704.457602,0.382249 Z M376.962468,339.544987 C366.850414,372.090224 355.237598,422.417649 338.155897,463.793323 C329.34894,486.17172 329.775493,482.27404 323.154133,496.403131 L328.871513,494.552124 C387.632171,478.108297 428.773045,474.03256 467.033707,466.990517 C459.355747,460.926807 452.683513,456.238633 447.40247,451.40371 C421.114653,422.302206 411.937886,416.833323 376.962468,339.541074 L376.962468,339.544987 L376.962468,339.544987 Z M665.330138,525.958581 C657.853714,534.315505 644.659911,539.150428 625.310434,539.150428 C591.88274,539.150428 561.501576,529.920831 517.517664,507.489604 C441.869016,515.846528 361.420664,524.704358 316.11796,539.218912 C313.918667,540.095499 311.284993,540.977955 308.201286,542.296748 C253.665071,635.533873 213.169897,675.064411 177.580087,673.493208 C166.294033,672.994258 149.885426,666.449208 144.606339,663.373328 L138.084769,657.176564 L135.789599,652.822981 C132.713719,644.904351 131.835176,637.427927 133.592262,629.071004 C138.431099,605.761233 163.499913,568.819366 216.279041,535.833878 C224.635965,529.674291 243.709552,519.935961 261.299985,511.579038 C274.611189,490.402034 280.759035,476.834507 297.641156,439.319336 C316.744093,393.995108 334.146687,339.826747 345.141197,301.127793 L345.141197,300.687543 C328.87347,247.468165 319.195796,211.377448 335.467437,152.878983 C339.425774,136.167093 353.934457,119.014952 370.215881,119.014952 L380.768185,119.014952 C390.884152,119.014952 400.559869,122.534995 407.597999,129.567256 C436.627106,158.59832 422.989139,233.391905 408.478499,291.890369 C407.597999,294.525999 407.155792,296.723336 406.717499,298.044086 C424.309889,347.741464 452.118037,396.818578 479.826394,419.692012 C491.263111,428.483316 502.465028,438.591456 516.537374,446.506173 C536.329058,444.304923 554.054502,442.391303 572.085186,442.391303 C626.625314,442.391303 659.610801,452.070933 672.364355,472.743117 C676.764898,479.777334 678.960278,488.132301 677.645398,496.927517 C677.205148,507.923984 673.248768,518.039951 665.330138,525.958581 L665.330138,525.958581 Z M637.533731,489.210424 C633.139058,484.811837 620.508774,472.273517 558.932472,472.273517 C555.858549,472.273517 548.309728,471.488894 544.357262,475.885524 C576.462249,489.957871 607.187787,500.643227 627.415807,500.643227 C630.499514,500.643227 633.139057,500.20102 635.77273,499.766641 L637.531774,499.766641 C639.733024,498.886141 641.051817,498.441978 641.492067,494.049261 C640.617437,492.724598 639.73498,490.965554 637.533731,489.210424 L637.533731,489.210424 Z M250.409178,552.252269 C241.171754,557.529399 233.697288,562.364323 229.296745,565.886322 C198.070301,594.473223 178.278617,623.50233 176.079323,640.218134 C195.86905,633.620254 221.816407,604.591147 250.409178,552.256182 L250.409178,552.252269 Z M375.984135,254.429985 L378.181471,252.668985 C381.261264,238.596638 383.413598,223.479431 386.053141,213.799801 L387.371935,206.763627 C391.768565,181.692856 390.089745,167.043293 382.611365,156.49099 L376.013485,154.28974 C374.893895,155.992839 373.86584,157.754379 372.933691,159.56687 C365.459224,178.03976 365.870124,214.850531 375.986091,254.431942 L375.984135,254.429985 L375.984135,254.429985 Z"/></svg>