<svg xmlns="http://www.w3.org/2000/svg" width="896" height="896" viewBox="0 0 896 896"><path d="M832,352 C867.36,352 896,380.48 896,416 L896,832 C896,867.36 867.52,896 832,896 L416,896 C380.64,896 352,867.52 352,832 L352,576 L480,576 C533.312,576 576,533.024 576,480 L576,352 L832,352 Z M128,640 C128,710.692448 185.307552,768 256,768 L256,832 C149.961328,832 64,746.038672 64,640 L128,640 Z M668.736,512 L604.096,512 L512,766.4 L564.256,766.4 L564.224,766.368 L583.488,712.736 L683.872,712.736 L703.136,766.368 L758.112,766.368 L668.736,512 Z M635.744,561.504 L670.112,670.112 L597.248,670.112 L634.368,561.504 L635.744,561.504 Z M480,0 C515.36,0 544,28.48 544,64 L544,480 C544,515.36 515.52,544 480,544 L64,544 C28.64,544 0,515.52 0,480 L0,64 C0,28.64 28.48,0 64,0 L480,0 Z M361.6,131 C355,151.1 347.2,170 338.2,187.4 L338.2,187.4 L291.1,187.4 L308.8,178.7 L307.774804,176.936385 C298.196552,160.525922 288.348276,145.513793 278.5,131.9 L278.5,131.9 L252.7,144.5 L253.72201,145.839821 C263.241023,158.39453 272.210345,172.337931 280.9,187.4 L280.9,187.4 L239.8,187.4 L239.8,216.5 L272.2,216.5 L272.2,265.7 L271.6,278.6 L234.4,278.6 L234.4,307.7 L268.9,307.7 L268.717011,308.925989 C266.919333,320.738333 264.29,331.42 261.1,340.7 C254.2,358.4 241,373.4 221.8,385.4 L221.8,385.4 L239.2,413 L239.959862,412.563889 C261.166228,400.296983 276.512941,383.342353 286,361.7 C292,346.7 296.2,328.7 299.2,307.7 L299.2,307.7 L343.9,307.7 L343.9,409.7 L373.9,409.7 L373.9,307.7 L411.1,307.7 L411.1,278.6 L373.9,278.6 L373.9,216.5 L405.1,216.5 L405.1,187.4 L370.6,187.4 L371.253711,186.167769 C378.217631,172.971074 384.890909,158.081818 391,141.5 L391,141.5 Z M203.5,134.6 L171.7,134.6 L171.7,185.3 L136.9,185.3 L136.9,215.6 L171.7,215.6 L171.7,276.5 L169.979959,277.148967 C157.926653,281.652686 145.6,285.336364 133,288.2 L133,288.2 L141.1,320 L144.5,318.7893 C153.566667,315.533333 162.633333,312.066667 171.7,308.6 L171.7,308.6 L171.7,370.1 L171.697157,370.433005 C171.587274,376.821 168.29322,380.3 162.1,380.3 C155.5,380.3 148.3,379.7 140.8,378.5 L140.8,378.5 L147.7,408.8 L172.9,408.8 L173.50894,408.79694 C193.50298,408.59498 203.5,398.396 203.5,378.2 L203.5,378.2 L203.5,294.2 L206.1913,292.8497 C214.24,288.797 222.07,284.72 229.9,280.4 L229.9,280.4 L229.9,248.6 L227.724826,249.86875 C219.747917,254.497917 211.75,258.875 203.5,263 L203.5,263 L203.5,215.6 L230.5,215.6 L230.5,185.3 L203.5,185.3 L203.5,134.6 Z M343.9,216.5 L343.9,278.6 L301.6,278.6 L302.2,265.7 L302.2,216.5 L343.9,216.5 Z M640,64 C746.038672,64 832,149.961328 832,256 L768,256 C768,185.307552 710.692448,128 640,128 L640,64 Z"/></svg>