<svg xmlns="http://www.w3.org/2000/svg" width="25" height="25" viewBox="0 0 25 25"><path fill="#019688" d="M11.6472103,14.9337036 C11.7360621,14.8517491 11.8249137,14.7585242 11.9137661,14.6540279 C12.0510666,14.4925535 12.1739125,14.3077578 12.2823076,14.0996352 C12.3907027,13.8915126 12.4774175,13.6600695 12.5424545,13.4052987 C12.6074916,13.150528 12.6400096,12.8760256 12.6400096,12.5817834 C12.6400096,12.0076522 12.5370358,11.4819712 12.3310851,11.0047246 C12.1251345,10.527478 11.8378918,10.1184157 11.4693484,9.77752527 C11.1008051,9.43663486 10.6636181,9.17110316 10.1577743,8.98092219 C9.65193051,8.79074123 9.10273691,8.69565217 8.51017704,8.69565217 C7.91761717,8.69565217 7.36661702,8.79074123 6.85716006,8.98092219 C6.3477031,9.17110316 5.90690298,9.43842899 5.53474648,9.78290772 C5.16258997,10.1273864 4.87173416,10.5400371 4.6621703,11.020872 C4.45260644,11.5017068 4.34782609,12.0327703 4.34782609,12.6140781 C4.34782609,13.2384458 4.44718677,13.7928329 4.64591112,14.2772561 C4.84463546,14.7616794 5.12284538,15.1707417 5.4805492,15.5044555 C5.83825302,15.8381692 6.27002035,16.091142 6.77586415,16.2633814 C7.28170794,16.4356207 7.83812776,16.5217391 8.44514031,16.5217391 L12.7462472,16.5217391 C13.1505272,16.5217391 13.4782609,16.1940055 13.4782609,15.7897255 C13.4782609,15.7858034 13.4782609,15.7818813 13.4781647,15.7779597 C13.4716667,15.3802848 13.1440198,15.0631734 12.7463449,15.0696715 L12.4462227,15.0745756 C11.9103596,15.1162721 11.4493806,15.2371903 11.0632855,15.4373302 L11.5018668,15.0590602 L11.5018668,15.0577119 C11.5083652,15.0526168 11.5148636,15.0474615 11.521362,15.0422459 L11.647212,14.9337021 L11.6472103,14.9337036 Z M12.4505929,24.9011858 C5.57432031,24.9011858 0,19.3268655 0,12.4505929 C0,5.57432031 5.57432031,0 12.4505929,0 C19.3268655,0 24.9011858,5.57432031 24.9011858,12.4505929 C24.9011858,19.3268655 19.3268655,24.9011858 12.4505929,24.9011858 Z M13.9276056,8.91304348 C13.4393155,8.91304348 13.0434783,9.30888076 13.0434783,9.79717079 C13.0434783,10.2854608 13.4393155,10.6812981 13.9276056,10.6812981 L19.1158727,10.6812981 C19.6041627,10.6812981 20,10.2854608 20,9.79717079 C20,9.30888076 19.6041627,8.91304348 19.1158727,8.91304348 L13.9276056,8.91304348 Z M15.6521739,15.406406 C15.6521739,15.9023256 16.0414915,16.3043478 16.5217391,16.3043478 C17.0019867,16.3043478 17.3913043,15.9023256 17.3913043,15.406406 L17.3913043,11.9848983 C17.3913043,11.4889788 17.0019867,11.3043478 16.5217391,11.3043478 C16.0414915,11.3043478 15.6521739,11.4889788 15.6521739,11.9848983 L15.6521739,15.406406 Z M10.6780682,12.6356079 C10.6780682,12.9800866 10.6238714,13.2940599 10.5154763,13.5775372 C10.4070812,13.8610145 10.2553304,14.1050166 10.0602192,14.3095509 C9.86510802,14.5140851 9.63386861,14.6719688 9.36649404,14.7832067 C9.09911946,14.8944447 8.8100702,14.9500628 8.49933759,14.9500628 C8.18137863,14.9500628 7.89052282,14.8944447 7.62676141,14.7832067 C7.36300001,14.6719688 7.13537371,14.5140851 6.94387571,14.3095509 C6.7523777,14.1050166 6.60423996,13.8610145 6.49945803,13.5775372 C6.3946761,13.2940599 6.34228592,12.9800866 6.34228592,12.6356079 C6.34228592,12.3054825 6.39648266,12.0004798 6.50487776,11.7205909 C6.61327285,11.4407019 6.76502371,11.2002881 6.96013489,10.9993421 C7.15524607,10.7983962 7.38467892,10.6423066 7.64844032,10.5310687 C7.91220173,10.4198308 8.19944443,10.3642127 8.51017704,10.3642127 C8.828136,10.3642127 9.12079837,10.4198308 9.38817295,10.5310687 C9.65554752,10.6423066 9.88498037,10.7983962 10.0764784,10.9993421 C10.2679764,11.2002881 10.4161141,11.4407019 10.5208961,11.7205909 C10.625678,12.0004798 10.6780682,12.3054825 10.6780682,12.6356079 Z"/></svg>