<svg xmlns="http://www.w3.org/2000/svg" width="896" height="896" viewBox="0 0 896 896"><path d="M832,352 C867.36,352 896,380.48 896,416 L896,832 C896,867.36 867.52,896 832,896 L416,896 C380.64,896 352,867.52 352,832 L352,576 L480,576 C533.312,576 576,533.024 576,480 L576,352 L832,352 Z M600.003727,654.5 L568.803727,654.5 L568.803727,816.8 L600.003727,816.8 L600.003727,654.5 Z M805.203727,619.1 L665.103727,619.1 L665.103727,647.6 L774.303727,647.6 L774.303727,775.1 C774.303727,783.5 771.003727,788 765.003727,788 L738.603727,787.1 L746.103727,815.3 L771.003727,815.3 C793.803727,815.3 805.203727,804.5 805.203727,783.5 L805.203727,619.1 Z M744.303727,666.5 L629.403727,666.5 L629.403727,784.7 L744.303727,784.7 L744.303727,666.5 Z M715.203727,737.3 L715.203727,758.9 L659.103727,758.9 L659.103727,737.3 L715.203727,737.3 Z M715.203727,691.7 L715.203727,712.7 L659.103727,712.7 L659.103727,691.7 L715.203727,691.7 Z M607.503727,606.8 L584.703727,620.9 C599.703727,635.3 611.403727,648.5 620.403727,659.9 L643.503727,644 C635.103727,633.2 623.103727,620.9 607.503727,606.8 Z M587.103727,537.8 C579.603727,560 567.003727,581 549.003727,600.8 L575.403727,617.9 C584.103727,607.7 591.903727,596.6 599.103727,584.6 L614.703727,584.6 C621.903727,595.4 628.503727,606.8 633.903727,618.8 L661.503727,608.3 C657.903727,600.8 653.103727,593 647.103727,584.6 L684.603727,584.6 L684.603727,557.3 L612.303727,557.3 C613.803727,553.1 615.303727,548.9 617.103727,544.4 L587.103727,537.8 Z M713.103727,538.1 C707.103727,558.8 696.903727,578.3 682.203727,596.6 L708.603727,613.7 C715.203727,604.7 721.503727,595.1 726.903727,584.6 L745.803727,584.6 C752.703727,594.8 758.703727,605.6 764.103727,616.4 L791.703727,605.9 C788.103727,599.3 783.903727,592.1 778.503727,584.6 L821.403727,584.6 L821.403727,557.3 L738.603727,557.3 C739.803727,553.1 741.303727,548.9 742.803727,544.7 L713.103727,538.1 Z M480,0 C515.36,0 544,28.48 544,64 L544,480 C544,515.36 515.52,544 480,544 L64,544 C28.64,544 0,515.52 0,480 L0,64 C0,28.64 28.48,0 64,0 L480,0 Z M159.924569,111.347312 C145.698276,136.353763 129.390086,155.803226 111,169.695699 L129.737069,191.923656 C133.206897,188.797849 137.023707,185.672043 140.840517,182.198925 C140.146552,190.88172 139.105603,199.564516 138.064655,208.247312 L114.122845,208.247312 L114.122845,230.822581 L135.288793,230.822581 C133.553879,243.673118 131.471983,256.523656 129.390086,269.374194 L228.280172,269.374194 L226.198276,276.667742 C211.625,284.308602 197.398707,290.560215 183.519397,295.769892 C178.314655,297.853763 169.293103,298.895699 156.454741,298.895699 L162.006466,324.249462 L236.260776,321.470968 C210.584052,331.890323 186.642241,339.183871 163.741379,344.046237 C154.025862,344.046237 144.657328,343.698925 134.94181,343.004301 L142.575431,372.525806 C177.62069,371.483871 215.44181,370.094624 256.038793,368.010753 L256.038793,397.184946 C256.038793,403.436559 252.568966,406.909677 245.976293,406.909677 C236.954741,406.909677 227.586207,406.215054 217.87069,405.173118 L224.116379,434 L255.69181,434 C278.592672,434 290.043103,424.275269 290.043103,404.825806 L290.043103,366.274194 C316.413793,364.884946 343.825431,363.148387 372.971983,361.411828 C381.993534,369.052688 390.321121,376.346237 397.954741,383.639785 L426.407328,364.190323 C408.364224,348.213978 382.6875,329.806452 349.377155,308.967742 L324.394397,324.944086 C332.028017,329.806452 339.314655,335.363441 346.601293,340.92043 C306.00431,343.698925 264.366379,346.130108 222.034483,347.866667 C268.18319,334.668817 310.168103,317.303226 347.642241,295.769892 L322.3125,279.098925 C307.392241,287.434409 292.818966,295.422581 278.592672,302.716129 C256.385776,303.410753 234.178879,304.452688 211.625,305.147312 C230.362069,298.895699 248.405172,291.254839 265.75431,282.572043 L255.69181,274.931183 C256.385776,273.194624 256.732759,271.458065 257.426724,269.374194 L274.775862,269.374194 L274.775862,250.966667 L261.590517,250.966667 C262.631466,244.715054 263.672414,238.116129 264.366379,230.822581 L285.532328,230.822581 L285.532328,208.247312 L266.101293,208.247312 C266.795259,196.786022 267.142241,184.282796 267.142241,170.737634 L152.637931,170.737634 C156.107759,166.569892 159.924569,162.402151 163.394397,158.234409 L281.368534,158.234409 L281.368534,133.227957 L181.090517,133.227957 C183.866379,128.365591 186.989224,123.155914 189.765086,117.946237 L159.924569,111.347312 Z M205.726293,373.915054 C182.131466,386.070968 152.637931,396.143011 116.551724,403.783871 L129.737069,431.568817 C166.864224,421.844086 198.439655,410.035484 224.463362,395.448387 L205.726293,373.915054 Z M329.252155,372.525806 L311.209052,398.921505 C343.825431,406.562366 375.400862,417.329032 406.282328,431.221505 L424.325431,403.089247 C395.525862,390.933333 363.950431,380.86129 329.252155,372.525806 Z M317.454741,111 C304.269397,143.994624 288.655172,169.695699 270.959052,187.755914 L290.043103,210.678495 C295.247845,205.121505 300.452586,199.564516 305.657328,193.312903 C311.903017,207.552688 320.577586,220.750538 332.375,232.906452 C317.107759,244.02043 298.37069,252.008602 276.510776,257.21828 L292.818966,282.919355 C317.107759,276.667742 338.273707,266.595699 355.622845,253.050538 C372.278017,265.206452 392.403017,275.625806 416.69181,284.655914 L433,255.829032 C411.487069,248.882796 393.096983,240.547312 377.482759,231.169892 C390.668103,214.498925 400.730603,194.354839 406.976293,170.390323 L426.407328,170.390323 L426.407328,141.910753 L337.232759,141.910753 C340.702586,134.269892 344.519397,126.28172 347.989224,117.946237 L317.454741,111 Z M182.131466,227.696774 L174.844828,238.810753 C186.642241,241.589247 198.092672,245.756989 209.890086,250.966667 L160.618534,250.966667 C162.006466,243.325806 163.047414,235.337634 164.435345,227.696774 L182.131466,227.696774 Z M236.954741,227.696774 C235.913793,235.337634 234.525862,243.325806 233.137931,250.966667 L213.012931,250.966667 L220.646552,239.158065 C210.931034,234.990323 199.827586,231.169892 188.030172,227.696774 L236.954741,227.696774 Z M377.135776,170.390323 C371.584052,186.366667 363.950431,200.606452 353.540948,213.456989 C339.314655,200.953763 329.599138,186.366667 324.047414,170.390323 L377.135776,170.390323 Z M239.383621,188.797849 L238.342672,212.067742 L216.829741,212.067742 L223.769397,201.301075 C214.053879,196.43871 203.297414,192.270968 192.193966,188.797849 L239.383621,188.797849 Z M188.030172,188.797849 L180.049569,200.25914 C190.459052,203.037634 200.521552,207.205376 210.931034,212.067742 L166.864224,212.067742 C167.124461,209.202419 167.433493,206.288256 167.754723,203.361883 L168.402605,197.503709 C168.723835,194.577335 169.032866,191.663172 169.293103,188.797849 L188.030172,188.797849 Z M832,256 L768,256 C768,185.307552 710.692448,128 640,128 L640,64 C746.038672,64 832,149.961328 832,256 L832,256 Z M64,640 L128,640 C128,710.692448 185.307552,768 256,768 L256,832 C149.961328,832 64,746.038672 64,640 Z"/></svg>