<svg xmlns="http://www.w3.org/2000/svg" viewBox="0 0 48 48">
  <path d="M10.5714286,8 L14,8 L14,11.6666667 L10.5714286,11.6666667 L10.5714286,20.8333333 C10.5714286,22.8583774 9.03640486,24.5 7.14285714,24.5 C9.03640486,24.5 10.5714286,26.1416226 10.5714286,28.1666667 L10.5714286,37.3333333 L14,37.3333333 L14,41 L10.5714286,41 C8.73714286,40.505 7.14285714,39.35 7.14285714,37.3333333 L7.14285714,30 C7.14285714,27.9749559 5.60783343,26.3333333 3.71428571,26.3333333 L2,26.3333333 L2,22.6666667 L3.71428571,22.6666667 C5.60783343,22.6666667 7.14285714,21.0250441 7.14285714,19 L7.14285714,11.6666667 C7.14285714,9.64162258 8.67788086,8 10.5714286,8 Z M37.4285714,8 C39.3221191,8 40.8571429,9.64162258 40.8571429,11.6666667 L40.8571429,19 C40.8571429,21.0250441 42.3921666,22.6666667 44.2857143,22.6666667 L46,22.6666667 L46,26.3333333 L44.2857143,26.3333333 C42.3921666,26.3333333 40.8571429,27.9749559 40.8571429,30 L40.8571429,37.3333333 C40.8571429,39.3583774 39.3221191,41 37.4285714,41 L34,41 L34,37.3333333 L37.4285714,37.3333333 L37.4285714,28.1666667 C37.4285714,26.1416226 38.9635951,24.5 40.8571429,24.5 C38.9635951,24.5 37.4285714,22.8583774 37.4285714,20.8333333 L37.4285714,11.6666667 L34,11.6666667 L34,8 L37.4285714,8 Z M23.5,30 C24.3284271,30 25,30.6715729 25,31.5 C25,32.3284271 24.3284271,33 23.5,33 C22.6715729,33 22,32.3284271 22,31.5 C22,30.6715729 22.6715729,30 23.5,30 Z M15.5,30 C16.3284271,30 17,30.6715729 17,31.5 C17,32.3284271 16.3284271,33 15.5,33 C14.6715729,33 14,32.3284271 14,31.5 C14,30.6715729 14.6715729,30 15.5,30 Z M30.5,30 C31.3284271,30 32,30.6715729 32,31.5 C32,32.3284271 31.3284271,33 30.5,33 C29.6715729,33 29,32.3284271 29,31.5 C29,30.6715729 29.6715729,30 30.5,30 Z"/>
</svg>